<svg width="30" height="30" viewBox="0 0 30 30" fill="none" xmlns="http://www.w3.org/2000/svg">
<rect x="5" y="3.75" width="20" height="22.5" rx="2" fill="#27B1E0"/>
<path d="M10.625 8.125L19.375 8.125" stroke="#0F56B3" stroke-linecap="round"/>
<path d="M10.625 11.875L15.625 11.875" stroke="#0F56B3" stroke-linecap="round"/>
<path d="M10.625 15.625L18.125 15.625" stroke="#0F56B3" stroke-linecap="round"/>
<path d="M5 23.75C5 23.2853 5 23.053 5.03843 22.8598C5.19624 22.0664 5.81644 21.4462 6.60982 21.2884C6.80302 21.25 7.03534 21.25 7.5 21.25H21.25C22.8937 21.25 23.7156 21.25 24.2688 20.796C24.3701 20.7129 24.4629 20.6201 24.546 20.5188C25 19.9656 25 19.1437 25 17.5V22.25C25 24.1356 25 25.0784 24.4142 25.6642C23.8284 26.25 22.8856 26.25 21 26.25H7.5C7.03534 26.25 6.80302 26.25 6.60982 26.2116C5.81644 26.0538 5.19624 25.4336 5.03843 24.6402C5 24.447 5 24.2147 5 23.75Z" fill="#0F56B3"/>
</svg>
