<svg width="13" height="13" viewBox="0 0 13 13" fill="none" xmlns="http://www.w3.org/2000/svg">
<path d="M8.125 9.20833C8.72331 9.20833 9.20833 8.72331 9.20833 8.125C9.20833 7.52669 8.72331 7.04167 8.125 7.04167C7.52669 7.04167 7.04167 7.52669 7.04167 8.125C7.04167 8.72331 7.52669 9.20833 8.125 9.20833Z" fill="#32ADE6"/>
<path fill-rule="evenodd" clip-rule="evenodd" d="M3.25 1.625C2.35254 1.625 1.625 2.35254 1.625 3.25V9.75C1.625 10.6475 2.35254 11.375 3.25 11.375H9.75C10.6475 11.375 11.375 10.6475 11.375 9.75V3.25C11.375 2.35254 10.6475 1.625 9.75 1.625H3.25ZM2.70833 9.75V4.33333H10.2917V9.75C10.2917 10.0492 10.0492 10.2917 9.75 10.2917H3.25C2.95085 10.2917 2.70833 10.0492 2.70833 9.75Z" fill="#32ADE6"/>
</svg>
