<svg width="18" height="18" viewBox="0 0 18 18" fill="none" xmlns="http://www.w3.org/2000/svg">
<path fill-rule="evenodd" clip-rule="evenodd" d="M9.39767 14.8008C10.6216 14.1488 14.25 11.9075 14.25 8.25C14.25 5.35051 11.8995 3 9 3C6.10051 3 3.75 5.35051 3.75 8.25C3.75 11.9075 7.37836 14.1488 8.60232 14.8008C8.85373 14.9348 9.14627 14.9348 9.39767 14.8008ZM9 10.5C10.2426 10.5 11.25 9.49264 11.25 8.25C11.25 7.00736 10.2426 6 9 6C7.75736 6 6.75 7.00736 6.75 8.25C6.75 9.49264 7.75736 10.5 9 10.5Z" fill="#D9D9D9"/>
</svg>
