<svg width="13" height="13" viewBox="0 0 13 13" fill="none" xmlns="http://www.w3.org/2000/svg">
<g clip-path="url(#clip0_124_131)">
<path fill-rule="evenodd" clip-rule="evenodd" d="M4.33325 4.87533C4.33325 6.07194 5.3033 7.04199 6.49992 7.04199C7.69654 7.04199 8.66659 6.07194 8.66659 4.87533C8.66659 3.67871 7.69654 2.70866 6.49992 2.70866C5.3033 2.70866 4.33325 3.67871 4.33325 4.87533ZM5.41659 4.87533C5.41659 5.47363 5.90161 5.95866 6.49992 5.95866C7.09823 5.95866 7.58325 5.47363 7.58325 4.87533C7.58325 4.27702 7.09823 3.79199 6.49992 3.79199C5.90161 3.79199 5.41659 4.27702 5.41659 4.87533Z" fill="#32ADE6"/>
<path fill-rule="evenodd" clip-rule="evenodd" d="M6.49992 0.541992C9.79062 0.541992 12.4583 3.20963 12.4583 6.50033C12.4583 9.79102 9.79062 12.4587 6.49992 12.4587C3.20922 12.4587 0.541586 9.79102 0.541586 6.50033C0.541586 3.20963 3.20922 0.541992 6.49992 0.541992ZM11.3749 6.50033C11.3749 7.63252 10.989 8.67457 10.3414 9.50208C9.45068 8.33597 8.04569 7.58366 6.46499 7.58366C4.9048 7.58366 3.51579 8.31658 2.62348 9.4569C1.99703 8.63679 1.62492 7.61201 1.62492 6.50033C1.62492 3.80794 3.80753 1.62533 6.49992 1.62533C9.19231 1.62533 11.3749 3.80794 11.3749 6.50033ZM6.49992 11.3753C7.66463 11.3753 8.73394 10.9669 9.57243 10.2854C8.88676 9.30682 7.7506 8.66699 6.46499 8.66699C5.19535 8.66699 4.07145 9.29103 3.38329 10.2491C4.22824 10.9524 5.31468 11.3753 6.49992 11.3753Z" fill="#32ADE6"/>
</g>
<defs>
<clipPath id="clip0_124_131">
<rect width="13" height="13" fill="white"/>
</clipPath>
</defs>
</svg>
