<svg width="16" height="15" viewBox="0 0 16 15" fill="none" xmlns="http://www.w3.org/2000/svg">
<g clip-path="url(#clip0_54_146)">
<path d="M11.3225 9.69747C12.2404 8.45874 12.6516 6.92293 12.4736 5.3973C12.2957 3.87166 11.5418 2.46873 10.3628 1.46916C9.18383 0.469585 7.66665 -0.0528995 6.11482 0.00623156C4.56299 0.0653626 3.09096 0.701749 1.99323 1.78807C0.895505 2.87439 0.253031 4.33054 0.194346 5.86519C0.135662 7.39983 0.665096 8.8998 1.67673 10.065C2.68836 11.2302 4.10758 11.9747 5.65046 12.1496C7.19334 12.3244 8.74609 11.9168 9.99807 11.0081C10.0265 11.0456 10.0559 11.0812 10.09 11.1159L13.7399 14.7253C13.9177 14.9012 14.1588 15.0001 14.4103 15.0002C14.6618 15.0002 14.903 14.9015 15.0809 14.7257C15.2588 14.55 15.3588 14.3115 15.3588 14.0628C15.3589 13.8141 15.2591 13.5756 15.0814 13.3997L11.4315 9.79028C11.3976 9.75635 11.3611 9.72595 11.3225 9.69747ZM11.567 6.09372C11.567 6.77085 11.4322 7.44134 11.1701 8.06693C10.9081 8.69251 10.524 9.26093 10.0399 9.73974C9.55569 10.2185 8.98089 10.5983 8.34828 10.8575C7.71568 11.1166 7.03765 11.25 6.35293 11.25C5.6682 11.25 4.99018 11.1166 4.35757 10.8575C3.72497 10.5983 3.15017 10.2185 2.66599 9.73974C2.18182 9.26093 1.79775 8.69251 1.53571 8.06693C1.27368 7.44134 1.13881 6.77085 1.13881 6.09372C1.13881 4.7262 1.68816 3.41469 2.66599 2.4477C3.64383 1.48072 4.97006 0.937472 6.35293 0.937472C7.7358 0.937472 9.06203 1.48072 10.0399 2.4477C11.0177 3.41469 11.567 4.7262 11.567 6.09372Z" fill="#252836"/>
</g>
<defs>
<clipPath id="clip0_54_146">
<rect width="15.1683" height="15" fill="white" transform="translate(0.190674)"/>
</clipPath>
</defs>
</svg>
