<svg width="18" height="18" viewBox="0 0 18 18" fill="none" xmlns="http://www.w3.org/2000/svg">
<path fill-rule="evenodd" clip-rule="evenodd" d="M9 15.75C12.7279 15.75 15.75 12.7279 15.75 9C15.75 5.27208 12.7279 2.25 9 2.25C5.27208 2.25 2.25 5.27208 2.25 9C2.25 12.7279 5.27208 15.75 9 15.75ZM10 4.875C10 4.32272 9.55228 3.875 9 3.875C8.44772 3.875 8 4.32272 8 4.875V8.75C8 9.44036 8.55964 10 9.25 10H11.625C12.1773 10 12.625 9.55228 12.625 9C12.625 8.44772 12.1773 8 11.625 8H10V4.875Z" fill="#D9D9D9"/>
</svg>
